<?xml version="1.0" standalone="no"?>
<!DOCTYPE svg PUBLIC "-//W3C//DTD SVG 20010904//EN"
 "http://www.w3.org/TR/2001/REC-SVG-20010904/DTD/svg10.dtd">
<svg version="1.0" xmlns="http://www.w3.org/2000/svg"
 width="431.000000pt" height="431.000000pt" viewBox="0 0 431.000000 431.000000"
 preserveAspectRatio="xMidYMid meet">
<metadata>
Created by potrace 1.11, written by Peter Selinger 2001-2013
</metadata>
<g transform="translate(0.000000,431.000000) scale(0.100000,-0.100000)"
fill="#000000" stroke="none">
<path d="M1102 3997 l-52 -53 0 -496 c0 -464 1 -497 18 -502 49 -15 168 -46
174 -46 5 0 8 134 8 298 l0 298 50 49 50 49 0 202 0 201 -87 23 c-49 13 -93
25 -98 27 -6 2 -34 -20 -63 -50z"/>
<path d="M2901 3516 l-50 -51 -7 -700 -6 -700 56 55 56 54 0 133 0 133 28 -6
c15 -4 36 -10 48 -15 17 -6 31 2 73 45 l51 52 0 499 0 500 -99 26 -100 26 -50
-51z"/>
<path d="M1447 3288 c-9 -183 -9 -833 -1 -841 4 -3 6 -51 5 -105 l-2 -98 195
-54 196 -53 0 -104 c0 -56 -3 -103 -7 -103 -21 0 -178 45 -181 52 -2 4 -7 6
-11 3 -5 -2 -48 7 -97 20 -49 14 -100 28 -114 31 -14 3 -62 16 -107 28 l-83
24 0 -100 0 -100 -30 7 c-17 4 -58 14 -93 23 l-62 17 -3 112 c-2 88 -5 111
-16 107 -7 -3 -51 6 -98 19 l-85 24 -6 -141 c-4 -78 -7 -168 -7 -202 l0 -61
-87 24 c-49 12 -91 23 -95 23 -5 0 -8 -40 -8 -88 0 -49 -3 -91 -6 -94 -3 -3
-44 5 -92 18 -48 13 -90 24 -94 24 -5 0 -8 -43 -8 -95 l0 -94 43 -11 c23 -6
66 -18 95 -26 l52 -15 0 -104 0 -103 -87 24 c-49 13 -91 24 -95 24 -5 0 -8
-43 -8 -95 l0 -94 43 -11 c23 -6 66 -18 95 -26 l52 -15 0 -99 0 -98 83 -21
c45 -12 92 -26 103 -31 18 -7 30 0 73 44 l51 52 0 335 0 336 140 -37 c77 -20
143 -40 147 -43 11 -11 -7 -8 -99 16 l-88 24 0 -93 0 -93 43 -11 c96 -25 151
-43 142 -46 -5 -2 -49 7 -97 19 l-88 24 0 -93 0 -93 43 -11 c96 -25 151 -43
142 -46 -5 -2 -49 7 -97 19 l-88 24 0 -93 0 -93 43 -11 c96 -25 151 -43 142
-46 -5 -2 -49 7 -97 19 l-88 24 0 -92 0 -93 83 -22 c45 -12 90 -24 99 -26 17
-5 18 30 20 594 l3 599 92 -25 93 -25 2 -600 3 -600 65 -18 c36 -10 164 -44
285 -77 121 -33 315 -85 430 -117 116 -31 221 -59 235 -62 14 -2 62 -15 108
-27 l82 -24 0 600 0 600 30 -7 c17 -4 58 -15 93 -24 l62 -18 3 -600 2 -600
106 -28 105 -28 49 48 50 49 2 337 3 336 47 -14 47 -13 3 -102 3 -101 94 -26
c52 -13 90 -26 85 -28 -5 -2 -49 8 -97 21 l-87 24 2 -196 3 -195 94 -26 c52
-13 90 -26 85 -28 -5 -2 -48 8 -97 21 l-87 24 0 -92 0 -93 83 -22 c45 -12 90
-24 100 -27 15 -5 17 4 17 94 l0 99 95 -25 95 -25 0 -101 0 -100 55 54 55 54
0 395 0 395 -54 -53 -53 -53 -44 12 c-24 6 -68 18 -96 26 l-53 15 0 103 0 102
50 49 50 49 0 105 0 105 -55 -54 -55 -54 0 -104 0 -104 -30 7 c-17 4 -58 15
-93 24 l-62 18 -3 104 -3 104 51 50 50 49 0 103 c0 57 -3 103 -7 103 -4 0 -30
-23 -59 -51 l-51 -50 -84 21 c-46 12 -86 24 -88 26 -3 2 17 28 45 57 l49 52
-58 -55 -57 -54 0 -102 0 -101 -95 26 -95 26 0 108 c0 69 -4 106 -10 102 -8
-5 -133 24 -180 42 -8 3 -22 7 -30 8 -8 1 -52 12 -97 25 l-83 22 0 104 c0 77
3 104 13 104 6 0 51 -11 98 -24 l87 -24 51 52 c42 42 51 58 51 87 0 34 -2 36
-50 48 l-50 13 0 500 c0 274 -4 497 -8 494 -5 -3 -53 8 -108 23 -54 16 -141
39 -191 52 -51 13 -93 27 -93 32 0 4 -4 6 -9 2 -8 -5 -139 26 -181 42 -8 3
-22 7 -30 9 -62 12 -180 49 -180 56 0 5 -5 6 -10 3 -13 -8 -183 35 -188 47 -2
4 -7 6 -11 4 -6 -4 -109 19 -167 38 -20 6 -21 3 -27 -136z m96 -69 c45 -11 87
-25 92 -31 7 -7 4 -8 -10 -5 -11 3 -49 13 -85 22 -60 16 -106 34 -87 35 5 0
45 -9 90 -21z m202 -54 c50 -14 97 -27 105 -30 139 -34 190 -49 190 -56 0 -4
-39 3 -87 17 -49 13 -92 24 -96 24 -4 0 -6 -42 -5 -92 l3 -93 93 -24 c50 -13
92 -27 92 -32 0 -10 -184 40 -188 52 -2 5 -8 7 -13 3 -5 -3 -50 5 -99 18 l-90
23 0 107 c0 60 1 108 3 108 1 0 43 -11 92 -25z m395 -105 c95 -26 104 -29 98
-35 -6 -7 -170 35 -182 47 -15 12 2 10 84 -12z m-597 -41 c45 -11 87 -25 92
-31 7 -7 4 -8 -10 -5 -11 3 -49 13 -85 22 -60 16 -106 34 -87 35 5 0 45 -9 90
-21z m817 -19 c41 -12 120 -33 175 -47 55 -14 102 -27 104 -29 15 -14 -15 -10
-89 11 -47 14 -88 25 -92 25 -5 0 -8 -42 -8 -93 l0 -93 95 -23 c52 -14 95 -28
95 -33 0 -5 -8 -7 -17 -4 -47 15 -198 56 -280 77 l-93 24 0 108 c0 99 2 108
18 103 9 -3 51 -15 92 -26z m-220 -140 c95 -26 104 -29 98 -35 -6 -7 -170 35
-182 47 -15 12 2 10 84 -12z m-597 -41 c45 -11 87 -25 92 -31 7 -7 4 -8 -10
-5 -11 3 -49 13 -85 22 -60 16 -106 34 -87 35 5 0 45 -9 90 -21z m542 -144
c55 -14 114 -31 132 -36 l32 -10 3 -102 3 -101 93 -25 c51 -13 90 -26 87 -29
-7 -7 -185 42 -185 51 0 4 -4 6 -9 2 -8 -5 -139 26 -181 42 -8 3 -22 7 -30 9
-8 1 -52 13 -97 25 l-83 22 0 108 0 108 68 -19 c37 -10 112 -30 167 -45z
m-542 -56 c45 -11 87 -25 92 -31 7 -7 4 -8 -10 -5 -11 3 -49 13 -85 22 -60 16
-106 34 -87 35 5 0 45 -9 90 -21z m291 -79 c5 0 7 -3 3 -6 -7 -7 -187 38 -187
48 0 4 39 -4 88 -18 48 -13 91 -24 96 -24z m722 8 c46 -12 84 -26 84 -31 0 -5
-6 -7 -13 -4 -8 3 -51 15 -95 27 -76 21 -98 30 -71 30 6 0 49 -10 95 -22z m0
-200 c46 -12 84 -26 84 -31 0 -5 -6 -7 -13 -4 -8 3 -51 15 -95 27 -76 21 -98
30 -71 30 6 0 49 -10 95 -22z m-603 -240 l87 -23 0 -107 0 -107 -87 25 c-49
13 -91 24 -95 24 -5 0 -8 47 -8 105 0 58 3 105 8 105 4 0 46 -10 95 -22z m177
-48 c41 -12 83 -23 93 -26 15 -5 17 -19 17 -110 0 -57 -3 -104 -7 -104 -5 1
-46 11 -93 24 l-85 23 -3 106 c-1 59 -1 107 0 107 2 0 37 -9 78 -20z m302 -80
c10 0 10 -210 1 -210 -5 0 -47 10 -95 22 l-88 23 0 106 0 107 87 -24 c49 -13
91 -24 95 -24z m-879 -162 l87 -23 0 -108 c0 -98 -2 -108 -17 -103 -10 3 -38
10 -63 16 -25 6 -60 16 -77 21 l-33 11 0 104 c0 57 3 104 8 104 4 0 46 -10 95
-22z m177 -48 c25 -6 60 -16 78 -21 l32 -11 0 -104 c0 -57 -3 -104 -7 -104 -5
0 -47 10 -95 22 l-88 23 0 108 c0 98 2 108 18 103 9 -3 37 -10 62 -16z m-580
-45 c60 -16 106 -34 87 -35 -21 0 -173 43 -182 52 -7 7 -4 8 10 5 11 -3 49
-13 85 -22z m888 -40 c1 -1 1 -49 0 -107 l-3 -105 -92 25 -93 25 0 107 0 108
93 -25 c50 -14 93 -26 95 -28z m135 -33 l62 -17 3 -108 c1 -59 -1 -107 -5
-107 -4 1 -46 11 -93 24 l-85 23 -3 107 -3 108 31 -7 c17 -4 58 -14 93 -23z
m157 -42 c41 -12 83 -23 93 -26 15 -5 17 -19 17 -110 0 -57 -3 -104 -7 -104
-5 0 -47 10 -95 22 l-88 23 0 107 c0 60 1 108 3 108 1 0 36 -9 77 -20z m310
-193 c0 -87 -3 -108 -13 -104 -8 3 -51 15 -95 27 l-82 22 0 107 0 108 95 -25
95 -25 0 -110z m-1887 11 c48 -12 87 -25 87 -29 0 -5 -153 32 -184 45 -29 12
18 4 97 -16z m790 -9 c45 -11 87 -25 92 -31 7 -7 4 -8 -10 -5 -11 3 -49 13
-85 22 -60 16 -106 34 -87 35 5 0 45 -9 90 -21z m320 -85 c97 -26 177 -51 177
-55 0 -4 -39 3 -87 17 -49 13 -92 24 -96 24 -4 0 -6 -42 -5 -92 l3 -93 93 -24
c50 -13 92 -27 92 -32 0 -4 -42 4 -92 18 -51 14 -138 38 -193 53 l-100 27 -3
107 c-2 99 -1 107 15 102 10 -2 98 -26 196 -52z m1095 -94 c45 -12 82 -26 82
-30 0 -4 -43 5 -95 19 -52 14 -95 30 -95 34 0 5 6 7 13 4 8 -3 51 -15 95 -27z
m-1415 -21 c45 -11 87 -25 92 -31 7 -7 4 -8 -10 -5 -11 3 -49 13 -85 22 -60
16 -106 34 -87 35 5 0 45 -9 90 -21z m1013 -71 c46 -12 84 -26 84 -31 0 -5 -6
-7 -13 -4 -8 3 -51 15 -95 27 -76 21 -98 30 -71 30 6 0 49 -10 95 -22z m402
-108 c45 -12 82 -26 82 -30 0 -4 -43 5 -95 19 -52 14 -95 30 -95 34 0 5 6 7
13 4 8 -3 51 -15 95 -27z m-2205 -12 c48 -12 87 -25 87 -29 0 -5 -153 32 -184
45 -29 12 18 4 97 -16z m790 -9 c45 -11 87 -25 92 -31 7 -7 4 -8 -10 -5 -11 3
-49 13 -85 22 -60 16 -106 34 -87 35 5 0 45 -9 90 -21z m315 -84 c100 -27 182
-52 182 -56 0 -4 -39 3 -87 17 -49 13 -92 24 -96 24 -4 0 -6 -42 -5 -92 l3
-93 93 -24 c50 -13 92 -27 92 -32 0 -4 -42 4 -92 18 -51 14 -138 38 -193 53
l-100 27 -3 108 c-2 84 0 106 10 103 7 -3 95 -27 196 -53z m698 13 c46 -12 84
-26 84 -31 0 -5 -6 -7 -13 -4 -8 3 -51 15 -95 27 -76 21 -98 30 -71 30 6 0 49
-10 95 -22z m402 -108 c45 -12 82 -26 82 -30 0 -4 -43 5 -95 19 -52 14 -95 30
-95 34 0 5 6 7 13 4 8 -3 51 -15 95 -27z m-1415 -21 c45 -11 87 -25 92 -31 7
-7 4 -8 -10 -5 -11 3 -49 13 -85 22 -60 16 -106 34 -87 35 5 0 45 -9 90 -21z
m1013 -71 c46 -12 84 -26 84 -31 0 -5 -6 -7 -13 -4 -8 3 -51 15 -95 27 -76 21
-98 30 -71 30 6 0 49 -10 95 -22z m1084 -195 c0 -56 -1 -103 -3 -103 -3 0
-141 38 -169 46 -16 5 -18 19 -18 108 l0 103 95 -25 95 -25 0 -104z m-682 87
c45 -12 82 -26 82 -30 0 -4 -43 5 -95 19 -52 14 -95 30 -95 34 0 5 6 7 13 4 8
-3 51 -15 95 -27z m-402 -92 c46 -12 84 -26 84 -31 0 -5 -6 -7 -13 -4 -8 3
-51 15 -95 27 -76 21 -98 30 -71 30 6 0 49 -10 95 -22z m402 -108 c45 -12 82
-26 82 -30 0 -4 -43 5 -95 19 -52 14 -95 30 -95 34 0 5 6 7 13 4 8 -3 51 -15
95 -27z"/>
</g>
</svg>
